<svg xmlns="http://www.w3.org/2000/svg" width="24" height="21" viewBox="0 0 24 21">
  <path d="M12,21 C17.2727273,21 21.6363636,17.2307692 22.3636364,12.3846154 L20.5454545,12.3846154 C19.6363636,16.3333333 16.1818182,19.2051282 12,19.2051282 C7.81818182,19.2051282 4.18181818,16.3333333 3.45454545,12.3846154 L6.90909091,12.3846154 L6.90909091,10.5897436 L0,10.5897436 L0,17.4102564 L1.81818182,17.4102564 L1.81818182,13.6410256 C3.09090909,17.7692308 7.27272727,21 12,21 L12,21 Z M24,10.5897436 L24,3.76923077 L22.1818182,3.76923077 L22.1818182,7.53846154 C20.9090909,3.23076923 16.9090909,0 12,0 C6.72727273,0 2.36363636,3.76923077 1.63636364,8.61538462 L3.45454545,8.61538462 C4.36363636,4.66666667 7.81818182,1.79487179 12,1.79487179 C16.1818182,1.79487179 19.8181818,4.66666667 20.5454545,8.61538462 L17.0909091,8.61538462 L17.0909091,10.4102564 L24,10.5897436 Z"/>
</svg>
